Coordinates
version=1
nRows=19
nColumns=24
inDegrees=yes

Units are S.I. units (second, meters, Newtons, ...)
Angles are in degrees.

endheader
time	pelvis_tilt	pelvis_list	pelvis_rotation	pelvis_tx	pelvis_ty	pelvis_tz	hip_flexion_r	hip_adduction_r	hip_rotation_r	knee_angle_r	ankle_angle_r	subtalar_angle_r	mtp_angle_r	hip_flexion_l	hip_adduction_l	hip_rotation_l	knee_angle_l	ankle_angle_l	subtalar_angle_l	mtp_angle_l	lumbar_extension	lumbar_bending	lumbar_rotation
      7.29000000	     64.16609935	      4.56896250	      0.93717847	      0.56103290	      1.05859233	     -0.30992517	      2.12237969	    -13.33362509	      2.90131020	    -60.90191359	    -17.16150269	     -1.04970058	      0.00000000	      4.42828755	     -6.64853391	      3.46998212	    -68.28515079	     -8.44732203	     25.35454576	      0.00000000	      0.00000000	      0.00000000	      0.00000000
      7.30000000	     64.18161596	      4.57606001	      0.92671665	      0.56099022	      1.05865658	     -0.30993169	      2.10145154	    -13.34259638	      2.90434693	    -60.88459423	    -17.17546714	     -1.05111834	      0.00000000	      4.35050620	     -6.55664597	      3.32915518	    -67.11131379	     -8.39655632	     25.26015831	      0.00000000	      0.00000000	      0.00000000	      0.00000000
      7.31000000	     64.19181695	      4.58123957	      0.92212739	      0.56094854	      1.05871429	     -0.30994281	      2.08077776	    -13.34858658	      2.90496277	    -60.86826010	    -17.17971746	     -1.04924306	      0.00000000	      4.27953252	     -6.46290260	      3.20207367	    -65.93216080	     -8.32995658	     25.16119574	      0.00000000	      0.00000000	      0.00000000	      0.00000000
      7.32000000	     64.19520114	      4.58450057	      0.92448020	      0.56090983	      1.05876522	     -0.30995320	      2.06077463	    -13.35177308	      2.90116460	    -60.85403663	    -17.17631477	     -1.04430333	      0.00000000	      4.21638154	     -6.36918948	      3.08959433	    -64.75442190	     -8.25144115	     25.05904434	      0.00000000	      0.00000000	      0.00000000	      0.00000000
      7.33000000	     64.19693634	      4.58613523	      0.93230111	      0.56088221	      1.05881894	     -0.30995798	      2.03934680	    -13.35290350	      2.89220618	    -60.84066531	    -17.16885182	     -1.03737985	      0.00000000	      4.15651583	     -6.27715168	      2.98892657	    -63.58334140	     -8.16597774	     24.95399216	      0.00000000	      0.00000000	      0.00000000	      0.00000000
      7.34000000	     64.20747562	      4.58671149	      0.94113450	      0.56085971	      1.05888948	     -0.30996341	      2.01010685	    -13.35349994	      2.88033286	    -60.82485929	    -17.16170774	     -1.03041987	      0.00000000	      4.09020068	     -6.18731367	      2.89309173	    -62.42029515	     -8.07866504	     24.84587735	      0.00000000	      0.00000000	      0.00000000	      0.00000000
      7.35000000	     64.23889406	      4.58720186	      0.94368388	      0.56081746	      1.05897412	     -0.30998445	      1.96146696	    -13.35581812	      2.87171853	    -60.80248282	    -17.15910095	     -1.02600240	      0.00000000	      4.00300825	     -6.09827347	      2.79145863	    -61.26203566	     -7.99349791	     24.73500892	      0.00000000	      0.00000000	      0.00000000	      0.00000000
      7.36000000	     64.30200445	      4.58992365	      0.93042674	      0.56075249	      1.05905497	     -0.31002298	      1.87876625	    -13.36238404	      2.87568960	    -60.76898178	    -17.16428764	     -1.02686911	      0.00000000	      3.87713020	     -6.00673077	      2.67201012	    -60.10177309	     -7.91221939	     24.62279376	      0.00000000	      0.00000000	      0.00000000	      0.00000000
      7.37000000	     64.40442771	      4.59993862	      0.89078097	      0.56068940	      1.05915060	     -0.31003939	      1.74864492	    -13.37548960	      2.90235530	    -60.71945519	    -17.17911693	     -1.03535013	      0.00000000	      3.69384909	     -5.90900219	      2.52534466	    -58.93206503	     -7.83386511	     24.51162397	      0.00000000	      0.00000000	      0.00000000	      0.00000000
      7.38000000	     64.54955595	      4.62492365	      0.81560844	      0.56061619	      1.05937258	     -0.30995412	      1.56351940	    -13.39698253	      2.95948675	    -60.64933390	    -17.20394762	     -1.05287522	      0.00000000	      3.43740467	     -5.80301733	      2.34871571	    -57.74858315	     -7.75544771	     24.40400938	      0.00000000	      0.00000000	      0.00000000	      0.00000000
      7.39000000	     64.73777159	      4.67168640	      0.70092818	      0.56047657	      1.05986142	     -0.30972791	      1.32387428	    -13.42810695	      3.04960077	    -60.55582191	    -17.23787875	     -1.07969677	      0.00000000	      3.10094801	     -5.68863692	      2.14745732	    -56.55206894	     -7.67364393	     24.30144182	      0.00000000	      0.00000000	      0.00000000	      0.00000000
      7.40000000	     64.96629154	      4.74057109	      0.55100779	      0.56025449	      1.06055311	     -0.30945422	      1.03682699	    -13.46928752	      3.16830500	    -60.43939849	    -17.27927549	     -1.11485293	      0.00000000	      2.69021516	     -5.56557356	      1.93270536	    -55.34846266	     -7.58670039	     24.20370080	      0.00000000	      0.00000000	      0.00000000	      0.00000000
      7.41000000	     65.22570682	      4.82262191	      0.37776268	      0.56002273	      1.06113352	     -0.30927162	      0.71208804	    -13.52028847	      3.30500823	    -60.30441277	    -17.32643365	     -1.15636514	      0.00000000	      2.22121748	     -5.43116242	      1.71708069	    -54.14890357	     -7.49565696	     24.10906002	      0.00000000	      0.00000000	      0.00000000	      0.00000000
      7.42000000	     65.50071606	      4.90475850	      0.19528426	      0.55986155	      1.06156057	     -0.30911019	      0.35939029	    -13.58031418	      3.44616219	    -60.15821345	    -17.37798939	     -1.20162630	      0.00000000	      1.71621086	     -5.28181310	      1.51129542	    -52.96889783	     -7.40442206	     24.01522078	      0.00000000	      0.00000000	      0.00000000	      0.00000000
      7.43000000	     65.77810410	      4.98099274	      0.01536700	      0.55974130	      1.06226543	     -0.30877321	     -0.00981254	    -13.64690224	      3.57959344	    -60.00897221	    -17.43277442	     -1.24786669	      0.00000000	      1.20038907	     -5.11972908	      1.32346881	    -51.82628272	     -7.31868480	     23.92027369	      0.00000000	      0.00000000	      0.00000000	      0.00000000
      7.44000000	     66.05357166	      5.05422288	     -0.15084204	      0.55958536	      1.06331586	     -0.30833426	     -0.38014058	    -13.71643443	      3.69848801	    -59.86316483	    -17.48932167	     -1.29269898	      0.00000000	      0.69800065	     -4.95582988	      1.15833531	    -50.73799349	     -7.24414437	     23.82354163	      0.00000000	      0.00000000	      0.00000000	      0.00000000
      7.45000000	     66.32761738	      5.12685024	     -0.29445013	      0.55939499	      1.06409909	     -0.30809325	     -0.73514165	    -13.78708123	      3.80321369	    -59.72422664	    -17.54559626	     -1.33458606	      0.00000000	      0.22784451	     -4.80153135	      1.01426063	    -49.71593111	     -7.18482565	     23.72650587	      0.00000000	      0.00000000	      0.00000000	      0.00000000
      7.46000000	     66.59319192	      5.19786823	     -0.41867082	      0.55919737	      1.06428495	     -0.30815598	     -1.06239025	    -13.85872135	      3.89901181	    -59.59324916	    -17.59918939	     -1.37280065	      0.00000000	     -0.20020432	     -4.65970748	      0.88370090	    -48.76484248	     -7.14185963	     23.63321445	      0.00000000	      0.00000000	      0.00000000	      0.00000000
      7.47000000	     66.83143729	      5.26461772	     -0.53979219	      0.55899230	      1.06437585	     -0.30827383	     -1.35323985	    -13.93035954	      3.99122730	    -59.47116196	    -17.64754059	     -1.40694465	      0.00000000	     -0.58229819	     -4.52452700	      0.76057631	    -47.88462410	     -7.11261607	     23.54966300	      0.00000000	      0.00000000	      0.00000000	      0.00000000
